<svg width="135" height="38" viewBox="0 0 135 38" fill="none" xmlns="http://www.w3.org/2000/svg">
<path d="M2.04922 14.3C2.38255 13.7333 2.89922 13.05 3.59922 12.25C4.33255 11.45 5.18255 10.65 6.14922 9.85C7.11589 9.05 8.09922 8.38333 9.09922 7.85H11.3492C11.0492 8.41667 10.8159 9.08333 10.6492 9.85C10.4826 10.6167 10.3659 11.7 10.2992 13.1C10.2326 14.5 10.1826 16.45 10.1492 18.95C10.1492 21.4167 10.1492 24.65 10.1492 28.65L13.4492 29.7L11.7492 32.95C11.0826 33.05 10.3492 33.1333 9.54922 33.2C8.78255 33.3 8.03255 33.3833 7.29922 33.45C6.56589 33.55 5.93255 33.6 5.39922 33.6C4.86589 33.6333 4.51589 33.6333 4.34922 33.6C3.91589 33.4667 3.53255 33.25 3.19922 32.95C2.86589 32.6167 2.59922 32.2667 2.39922 31.9C2.19922 31.5333 2.04922 31.25 1.94922 31.05C2.01589 29.7833 2.14922 28.55 2.34922 27.35C2.58255 26.15 2.69922 24.85 2.69922 23.45C2.69922 22.3167 2.61589 21.2667 2.44922 20.3C2.31589 19.3 2.19922 18.3167 2.09922 17.35C1.99922 16.3833 1.98255 15.3667 2.04922 14.3ZM12.6992 17.8L19.9492 17.4V21.45L12.6992 21.05V17.8ZM14.7492 7.6V26.85C14.7492 27.05 14.6159 27.4167 14.3492 27.95C14.1159 28.45 13.8159 29.0333 13.4492 29.7H12.0492V7.6H14.7492ZM0.949219 6.4L1.34922 0.75C3.51589 0.916667 5.74922 1.11667 8.04922 1.35C10.3492 1.55 12.5492 1.78333 14.6492 2.05C16.7826 2.28333 18.6659 2.5 20.2992 2.7C21.9326 2.9 23.1492 3.08333 23.9492 3.25C24.0492 3.25 24.2492 3.41667 24.5492 3.75C24.8826 4.08333 25.2326 4.48333 25.5992 4.95C25.9992 5.38333 26.3326 5.8 26.5992 6.2C26.8992 6.56667 27.0492 6.83333 27.0492 7V28.55L29.5492 29.7V32.95C28.8826 33.0167 28.1159 33.1 27.2492 33.2C26.4159 33.3 25.5826 33.3833 24.7492 33.45C23.9159 33.55 23.1826 33.6167 22.5492 33.65C21.9492 33.6833 21.5492 33.6667 21.3492 33.6C20.9492 33.4667 20.5826 33.2333 20.2492 32.9C19.9159 32.5667 19.6326 32.2333 19.3992 31.9C19.1992 31.5333 19.0492 31.25 18.9492 31.05V9.35L10.3992 8.05L8.54922 8.15L8.44922 7.85L0.949219 6.4Z" fill="#33FFCC"/>
<path d="M34.6742 33.42C34.5809 33.42 34.3942 33.315 34.1142 33.105C33.8576 32.9183 33.6009 32.7083 33.3442 32.475C33.1109 32.2183 32.9942 32.0433 32.9942 31.95V19.945L31.5242 19.42V17.215C31.5242 17.215 31.7692 17.18 32.2592 17.11C32.7492 17.0167 33.3209 16.9233 33.9742 16.83C34.6509 16.7367 35.2692 16.655 35.8292 16.585C36.4126 16.4917 36.7742 16.445 36.9142 16.445C36.9842 16.445 37.1242 16.55 37.3342 16.76C37.5442 16.97 37.7426 17.1917 37.9292 17.425C38.1392 17.6583 38.2442 17.8217 38.2442 17.915V18.72C38.5242 18.51 38.8392 18.2767 39.1892 18.02C39.5626 17.74 39.9126 17.4833 40.2392 17.25C40.5659 17.0167 40.8459 16.83 41.0792 16.69C41.3126 16.5267 41.4642 16.445 41.5342 16.445C42.7009 16.445 43.6926 16.6083 44.5092 16.935C45.3259 17.2383 45.9442 17.775 46.3642 18.545C46.8076 19.2917 47.0292 20.33 47.0292 21.66V29.92L48.4642 30.445V32.615C48.4642 32.615 48.2192 32.6617 47.7292 32.755C47.2626 32.825 46.7026 32.9067 46.0492 33C45.3959 33.1167 44.8009 33.21 44.2642 33.28C43.7276 33.3733 43.4009 33.42 43.2842 33.42C43.1909 33.42 43.0042 33.315 42.7242 33.105C42.4442 32.9183 42.1759 32.7083 41.9192 32.475C41.6859 32.2183 41.5692 32.0433 41.5692 31.95V21.73C41.5692 21.2633 41.4876 20.925 41.3242 20.715C41.1842 20.505 41.0209 20.3767 40.8342 20.33C40.6476 20.26 40.4959 20.225 40.3792 20.225C40.3326 20.225 40.2042 20.2717 39.9942 20.365C39.7842 20.435 39.5392 20.54 39.2592 20.68C39.0026 20.7967 38.7342 20.9133 38.4542 21.03V29.92L39.8892 30.445V32.615C39.8892 32.615 39.6442 32.6617 39.1542 32.755C38.6876 32.825 38.1276 32.9067 37.4742 33C36.8442 33.1167 36.2492 33.21 35.6892 33.28C35.1526 33.3733 34.8142 33.42 34.6742 33.42Z" fill="white"/>
<path d="M55.3836 25.475C55.3836 26.3617 55.4769 27.12 55.6636 27.75C55.8736 28.3567 56.1536 28.8233 56.5036 29.15C56.8536 29.4533 57.2386 29.605 57.6586 29.605C57.6819 29.605 57.9036 29.5933 58.3236 29.57C58.7436 29.5467 59.2569 29.5233 59.8636 29.5C60.4936 29.4767 61.1002 29.4533 61.6836 29.43C62.2669 29.4067 62.7219 29.3833 63.0486 29.36V31.6C62.7452 31.6933 62.2786 31.845 61.6486 32.055C61.0419 32.265 60.4002 32.475 59.7236 32.685C59.0469 32.8717 58.4286 33.035 57.8686 33.175C57.3086 33.3383 56.9236 33.42 56.7136 33.42C55.2669 33.42 54.0186 33.1167 52.9686 32.51C51.9419 31.9033 51.1486 31.04 50.5886 29.92C50.0519 28.7767 49.7836 27.4233 49.7836 25.86C49.7836 24.7633 49.8769 23.7017 50.0636 22.675C50.2502 21.6483 50.4602 20.855 50.6936 20.295C50.9269 20.015 51.3352 19.665 51.9186 19.245C52.5252 18.825 53.1786 18.405 53.8786 17.985C54.6019 17.5417 55.2669 17.18 55.8736 16.9C56.4802 16.5967 56.9236 16.445 57.2036 16.445C58.5802 16.445 59.7469 16.69 60.7036 17.18C61.6836 17.67 62.4186 18.545 62.9086 19.805C63.4219 21.065 63.6552 22.8617 63.6086 25.195L53.3186 26.28V24.04L58.4286 23.06C58.4519 21.8933 58.3586 20.9717 58.1486 20.295C57.9386 19.595 57.6352 19.1867 57.2386 19.07C57.1219 19.0233 56.9469 18.9883 56.7136 18.965C56.4802 18.9417 56.3169 18.9533 56.2236 19C55.9902 19.1633 55.7919 19.805 55.6286 20.925C55.4652 22.045 55.3836 23.5617 55.3836 25.475Z" fill="white"/>
<path d="M70.7302 25.475C70.7302 26.3617 70.8236 27.12 71.0102 27.75C71.2202 28.3567 71.5002 28.8233 71.8502 29.15C72.2002 29.4533 72.5852 29.605 73.0052 29.605C73.0286 29.605 73.2502 29.5933 73.6702 29.57C74.0902 29.5467 74.6036 29.5233 75.2102 29.5C75.8402 29.4767 76.4469 29.4533 77.0302 29.43C77.6136 29.4067 78.0686 29.3833 78.3952 29.36V31.6C78.0919 31.6933 77.6252 31.845 76.9952 32.055C76.3886 32.265 75.7469 32.475 75.0702 32.685C74.3936 32.8717 73.7752 33.035 73.2152 33.175C72.6552 33.3383 72.2702 33.42 72.0602 33.42C70.6136 33.42 69.3652 33.1167 68.3152 32.51C67.2886 31.9033 66.4952 31.04 65.9352 29.92C65.3986 28.7767 65.1302 27.4233 65.1302 25.86C65.1302 24.7633 65.2236 23.7017 65.4102 22.675C65.5969 21.6483 65.8069 20.855 66.0402 20.295C66.2736 20.015 66.6819 19.665 67.2652 19.245C67.8719 18.825 68.5252 18.405 69.2252 17.985C69.9486 17.5417 70.6136 17.18 71.2202 16.9C71.8269 16.5967 72.2702 16.445 72.5502 16.445C73.9269 16.445 75.0936 16.69 76.0502 17.18C77.0302 17.67 77.7652 18.545 78.2552 19.805C78.7686 21.065 79.0019 22.8617 78.9552 25.195L68.6652 26.28V24.04L73.7752 23.06C73.7986 21.8933 73.7052 20.9717 73.4952 20.295C73.2852 19.595 72.9819 19.1867 72.5852 19.07C72.4686 19.0233 72.2936 18.9883 72.0602 18.965C71.8269 18.9417 71.6636 18.9533 71.5702 19C71.3369 19.1633 71.1386 19.805 70.9752 20.925C70.8119 22.045 70.7302 23.5617 70.7302 25.475Z" fill="white"/>
<path d="M88.0719 33.42C87.7919 33.42 87.3252 33.4083 86.6719 33.385C86.0419 33.3617 85.3302 33.3267 84.5369 33.28C83.7436 33.2333 82.9619 33.175 82.1919 33.105C81.4453 33.0583 80.8269 33.0117 80.3369 32.965L80.4419 27.085H83.0319L83.7669 29.885C84.1402 30.0017 84.5719 30.13 85.0619 30.27C85.5519 30.41 86.0069 30.5267 86.4269 30.62C86.8703 30.69 87.2086 30.725 87.4419 30.725C87.5586 30.725 87.6519 30.6667 87.7219 30.55C87.8152 30.4333 87.8852 30.2817 87.9319 30.095C87.9786 29.9083 88.0019 29.7333 88.0019 29.57C88.0019 29.22 87.8502 28.9167 87.5469 28.66C87.2436 28.38 86.8236 28.0883 86.2869 27.785C85.7736 27.4817 85.1552 27.1317 84.4319 26.735C83.3352 26.105 82.4952 25.5333 81.9119 25.02C81.3286 24.4833 80.9319 23.9467 80.7219 23.41C80.5352 22.85 80.4419 22.2433 80.4419 21.59C80.4419 21.2867 80.4536 20.9717 80.4769 20.645C80.5236 20.3183 80.5936 20.015 80.6869 19.735C80.9202 19.455 81.2352 19.1283 81.6319 18.755C82.0519 18.3817 82.4952 18.02 82.9619 17.67C83.4286 17.32 83.8602 17.0283 84.2569 16.795C84.6769 16.5617 85.0036 16.445 85.2369 16.445C85.5636 16.445 86.0303 16.4567 86.6369 16.48C87.2436 16.48 87.8969 16.5033 88.5969 16.55C89.2969 16.5733 89.9619 16.6083 90.5919 16.655C91.2219 16.6783 91.7236 16.7133 92.0969 16.76L91.9919 21.8H89.1219L88.8769 19.84C88.7836 19.7933 88.5736 19.735 88.2469 19.665C87.9203 19.595 87.5586 19.525 87.1619 19.455C86.7652 19.385 86.4036 19.3267 86.0769 19.28C85.7502 19.21 85.5286 19.175 85.4119 19.175C85.2952 19.175 85.2019 19.2217 85.1319 19.315C85.0852 19.4083 85.0502 19.5133 85.0269 19.63C85.0036 19.7467 84.9919 19.8517 84.9919 19.945C84.9919 20.3183 85.1552 20.6683 85.4819 20.995C85.8319 21.3217 86.2286 21.6133 86.6719 21.87C87.1386 22.1267 87.5236 22.3483 87.8269 22.535C88.3636 22.8383 88.9236 23.165 89.5069 23.515C90.0902 23.865 90.6502 24.25 91.1869 24.67C91.7236 25.0667 92.1552 25.4983 92.4819 25.965C92.8086 26.4317 92.9719 26.9333 92.9719 27.47C92.9719 27.7733 92.9486 28.135 92.9019 28.555C92.8786 28.975 92.8086 29.3133 92.6919 29.57C92.5053 29.8733 92.2252 30.2467 91.8519 30.69C91.4786 31.1333 91.0586 31.565 90.5919 31.985C90.1252 32.3817 89.6702 32.72 89.2269 33C88.7836 33.28 88.3986 33.42 88.0719 33.42Z" fill="white"/>
<path d="M93.5513 12.805V10.6C93.5513 10.6 93.7147 10.5767 94.0413 10.53C94.3913 10.4833 94.823 10.425 95.3363 10.355C95.8497 10.2617 96.3747 10.18 96.9113 10.11C97.448 10.04 97.9147 9.98167 98.3113 9.935C98.7313 9.88833 98.9997 9.865 99.1163 9.865C99.2097 9.865 99.3613 9.97 99.5713 10.18C99.7813 10.3667 99.9797 10.5767 100.166 10.81C100.376 11.0433 100.481 11.2067 100.481 11.3L100.201 18.58L100.446 18.615C100.726 18.405 101.03 18.1833 101.356 17.95C101.683 17.6933 101.998 17.4483 102.301 17.215C102.628 16.9817 102.896 16.795 103.106 16.655C103.34 16.515 103.491 16.445 103.561 16.445C104.728 16.445 105.72 16.6083 106.536 16.935C107.353 17.2383 107.971 17.775 108.391 18.545C108.835 19.2917 109.056 20.33 109.056 21.66L109.021 31.6C109.021 32.2067 108.846 32.895 108.496 33.665C108.146 34.435 107.645 35.1933 106.991 35.94C106.338 36.71 105.556 37.3867 104.646 37.97L103.036 36.605C103.293 35.7183 103.456 34.9483 103.526 34.295C103.596 33.665 103.62 33.07 103.596 32.51C103.596 31.9267 103.596 31.3083 103.596 30.655V21.73C103.596 21.2633 103.515 20.925 103.351 20.715C103.211 20.505 103.048 20.3767 102.861 20.33C102.675 20.26 102.523 20.225 102.406 20.225C102.336 20.225 102.173 20.2833 101.916 20.4C101.683 20.4933 101.426 20.5983 101.146 20.715C100.89 20.8317 100.668 20.9367 100.481 21.03V29.92L101.916 30.445V32.615C101.916 32.615 101.671 32.6617 101.181 32.755C100.715 32.825 100.155 32.9067 99.5013 33C98.848 33.1167 98.253 33.21 97.7163 33.28C97.1797 33.3733 96.8413 33.42 96.7013 33.42C96.608 33.42 96.4213 33.315 96.1413 33.105C95.8847 32.9183 95.628 32.7083 95.3713 32.475C95.138 32.2183 95.0213 32.0433 95.0213 31.95V13.33L93.5513 12.805Z" fill="white"/>
<path d="M116.631 33.42C115.348 33.42 114.309 33.1867 113.516 32.72C112.746 32.2533 112.174 31.6233 111.801 30.83C111.451 30.0367 111.276 29.1733 111.276 28.24C111.276 27.7033 111.323 27.1667 111.416 26.63C111.533 26.07 111.673 25.4983 111.836 24.915L116.771 26.735C116.701 26.9217 116.643 27.1317 116.596 27.365C116.573 27.5983 116.561 27.82 116.561 28.03C116.561 28.4033 116.631 28.7883 116.771 29.185C116.934 29.5583 117.203 29.745 117.576 29.745C117.786 29.745 118.019 29.6983 118.276 29.605C118.533 29.4883 118.801 29.3367 119.081 29.15C119.384 28.9633 119.688 28.765 119.991 28.555V30.83C119.618 31.11 119.186 31.46 118.696 31.88C118.206 32.2767 117.763 32.6383 117.366 32.965C116.969 33.2683 116.724 33.42 116.631 33.42ZM111.836 24.915L119.641 24.04V26.28L116.351 27.085L111.836 24.915ZM112.221 20.12L113.166 16.655C113.866 16.585 114.636 16.5383 115.476 16.515C116.316 16.4683 117.144 16.445 117.961 16.445C118.778 16.445 119.489 16.5033 120.096 16.62C120.446 16.69 120.878 16.935 121.391 17.355C121.928 17.775 122.453 18.2767 122.966 18.86C123.503 19.4433 123.946 20.0267 124.296 20.61C124.646 21.17 124.821 21.625 124.821 21.975V29.955L126.291 30.48V32.685C125.708 32.7783 125.031 32.8833 124.261 33C123.491 33.1167 122.791 33.21 122.161 33.28C121.531 33.3733 121.123 33.42 120.936 33.42C120.866 33.42 120.714 33.315 120.481 33.105C120.271 32.9183 120.061 32.7083 119.851 32.475C119.664 32.2417 119.571 32.0783 119.571 31.985V31.04L119.361 30.795V22.64C119.361 21.9867 119.268 21.5433 119.081 21.31C118.918 21.0533 118.533 20.9133 117.926 20.89C117.413 20.8433 116.841 20.82 116.211 20.82C115.604 20.82 114.998 20.8317 114.391 20.855C113.784 20.8783 113.248 20.9017 112.781 20.925L112.221 20.12Z" fill="white"/>
<path d="M128.2 29.96C128.2 29.88 128.36 29.6933 128.68 29.4C129 29.1067 129.373 28.7867 129.8 28.44C130.226 28.0667 130.613 27.7467 130.96 27.48C131.333 27.2133 131.56 27.08 131.64 27.08C131.773 27.08 132.013 27.24 132.36 27.56C132.706 27.8533 133.066 28.2133 133.44 28.64C133.84 29.0667 134.173 29.4667 134.44 29.84C134.706 30.1867 134.826 30.4133 134.8 30.52L134.52 31.56C134.493 31.6667 134.32 31.8667 134 32.16C133.68 32.4533 133.306 32.76 132.88 33.08C132.48 33.4 132.093 33.68 131.72 33.92C131.373 34.16 131.146 34.28 131.04 34.28C130.88 34.28 130.626 34.1333 130.28 33.84C129.96 33.5467 129.613 33.2 129.24 32.8C128.893 32.3733 128.586 31.9867 128.32 31.64C128.08 31.2667 127.973 31.0267 128 30.92L128.2 29.96Z" fill="white"/>
</svg>
