<svg width="134" height="38" viewBox="0 0 134 38" fill="none" xmlns="http://www.w3.org/2000/svg">
<path d="M1.1 13.55C1.43333 12.9833 1.95 12.3 2.65 11.5C3.38333 10.7 4.23333 9.9 5.2 9.1C6.16667 8.3 7.15 7.63333 8.15 7.1H10.4C10.1 7.66667 9.86667 8.33333 9.7 9.1C9.53333 9.86667 9.41667 10.95 9.35 12.35C9.28333 13.75 9.23333 15.7 9.2 18.2C9.2 20.6667 9.2 23.9 9.2 27.9L12.5 28.95L10.8 32.2C10.1333 32.3 9.4 32.3833 8.6 32.45C7.83333 32.55 7.08333 32.6333 6.35 32.7C5.61667 32.8 4.98333 32.85 4.45 32.85C3.91667 32.8833 3.56667 32.8833 3.4 32.85C2.96667 32.7167 2.58333 32.5 2.25 32.2C1.91667 31.8667 1.65 31.5167 1.45 31.15C1.25 30.7833 1.1 30.5 1 30.3C1.06667 29.0333 1.2 27.8 1.4 26.6C1.63333 25.4 1.75 24.1 1.75 22.7C1.75 21.5667 1.66667 20.5167 1.5 19.55C1.36667 18.55 1.25 17.5667 1.15 16.6C1.05 15.6333 1.03333 14.6167 1.1 13.55ZM11.75 17.05L19 16.65V20.7L11.75 20.3V17.05ZM13.8 6.85V26.1C13.8 26.3 13.6667 26.6667 13.4 27.2C13.1667 27.7 12.8667 28.2833 12.5 28.95H11.1V6.85H13.8ZM0 5.65L0.4 0C2.56667 0.166667 4.8 0.366667 7.1 0.600001C9.4 0.800001 11.6 1.03333 13.7 1.3C15.8333 1.53333 17.7167 1.75 19.35 1.95C20.9833 2.15 22.2 2.33333 23 2.5C23.1 2.5 23.3 2.66667 23.6 3C23.9333 3.33333 24.2833 3.73333 24.65 4.2C25.05 4.63333 25.3833 5.05 25.65 5.45C25.95 5.81667 26.1 6.08333 26.1 6.25V27.8L28.6 28.95V32.2C27.9333 32.2667 27.1667 32.35 26.3 32.45C25.4667 32.55 24.6333 32.6333 23.8 32.7C22.9667 32.8 22.2333 32.8667 21.6 32.9C21 32.9333 20.6 32.9167 20.4 32.85C20 32.7167 19.6333 32.4833 19.3 32.15C18.9667 31.8167 18.6833 31.4833 18.45 31.15C18.25 30.7833 18.1 30.5 18 30.3V8.6L9.45 7.3L7.6 7.4L7.5 7.1L0 5.65Z" fill="#19CAA4"/>
<path d="M33.725 32.67C33.6317 32.67 33.445 32.565 33.165 32.355C32.9083 32.1683 32.6517 31.9583 32.395 31.725C32.1617 31.4683 32.045 31.2933 32.045 31.2V19.195L30.575 18.67V16.465C30.575 16.465 30.82 16.43 31.31 16.36C31.8 16.2667 32.3717 16.1733 33.025 16.08C33.7017 15.9867 34.32 15.905 34.88 15.835C35.4633 15.7417 35.825 15.695 35.965 15.695C36.035 15.695 36.175 15.8 36.385 16.01C36.595 16.22 36.7933 16.4417 36.98 16.675C37.19 16.9083 37.295 17.0717 37.295 17.165V17.97C37.575 17.76 37.89 17.5267 38.24 17.27C38.6133 16.99 38.9633 16.7333 39.29 16.5C39.6167 16.2667 39.8967 16.08 40.13 15.94C40.3633 15.7767 40.515 15.695 40.585 15.695C41.7517 15.695 42.7433 15.8583 43.56 16.185C44.3767 16.4883 44.995 17.025 45.415 17.795C45.8583 18.5417 46.08 19.58 46.08 20.91V29.17L47.515 29.695V31.865C47.515 31.865 47.27 31.9117 46.78 32.005C46.3133 32.075 45.7533 32.1567 45.1 32.25C44.4467 32.3667 43.8517 32.46 43.315 32.53C42.7783 32.6233 42.4517 32.67 42.335 32.67C42.2417 32.67 42.055 32.565 41.775 32.355C41.495 32.1683 41.2267 31.9583 40.97 31.725C40.7367 31.4683 40.62 31.2933 40.62 31.2V20.98C40.62 20.5133 40.5383 20.175 40.375 19.965C40.235 19.755 40.0717 19.6267 39.885 19.58C39.6983 19.51 39.5467 19.475 39.43 19.475C39.3833 19.475 39.255 19.5217 39.045 19.615C38.835 19.685 38.59 19.79 38.31 19.93C38.0533 20.0467 37.785 20.1633 37.505 20.28V29.17L38.94 29.695V31.865C38.94 31.865 38.695 31.9117 38.205 32.005C37.7383 32.075 37.1783 32.1567 36.525 32.25C35.895 32.3667 35.3 32.46 34.74 32.53C34.2033 32.6233 33.865 32.67 33.725 32.67Z" fill="white"/>
<path d="M54.4343 24.725C54.4343 25.6117 54.5277 26.37 54.7143 27C54.9243 27.6067 55.2043 28.0733 55.5543 28.4C55.9043 28.7033 56.2893 28.855 56.7093 28.855C56.7327 28.855 56.9543 28.8433 57.3743 28.82C57.7943 28.7967 58.3077 28.7733 58.9143 28.75C59.5443 28.7267 60.151 28.7033 60.7343 28.68C61.3177 28.6567 61.7727 28.6333 62.0993 28.61V30.85C61.796 30.9433 61.3293 31.095 60.6993 31.305C60.0927 31.515 59.451 31.725 58.7743 31.935C58.0977 32.1217 57.4793 32.285 56.9193 32.425C56.3593 32.5883 55.9743 32.67 55.7643 32.67C54.3177 32.67 53.0693 32.3667 52.0193 31.76C50.9927 31.1533 50.1993 30.29 49.6393 29.17C49.1027 28.0267 48.8343 26.6733 48.8343 25.11C48.8343 24.0133 48.9277 22.9517 49.1143 21.925C49.301 20.8983 49.511 20.105 49.7443 19.545C49.9777 19.265 50.386 18.915 50.9693 18.495C51.576 18.075 52.2293 17.655 52.9293 17.235C53.6527 16.7917 54.3177 16.43 54.9243 16.15C55.531 15.8467 55.9743 15.695 56.2543 15.695C57.631 15.695 58.7977 15.94 59.7543 16.43C60.7343 16.92 61.4693 17.795 61.9593 19.055C62.4727 20.315 62.706 22.1117 62.6593 24.445L52.3693 25.53V23.29L57.4793 22.31C57.5027 21.1433 57.4093 20.2217 57.1993 19.545C56.9893 18.845 56.686 18.4367 56.2893 18.32C56.1727 18.2733 55.9977 18.2383 55.7643 18.215C55.531 18.1917 55.3677 18.2033 55.2743 18.25C55.041 18.4133 54.8427 19.055 54.6793 20.175C54.516 21.295 54.4343 22.8117 54.4343 24.725Z" fill="white"/>
<path d="M69.781 24.725C69.781 25.6117 69.8743 26.37 70.061 27C70.271 27.6067 70.551 28.0733 70.901 28.4C71.251 28.7033 71.636 28.855 72.056 28.855C72.0793 28.855 72.301 28.8433 72.721 28.82C73.141 28.7967 73.6544 28.7733 74.261 28.75C74.891 28.7267 75.4977 28.7033 76.081 28.68C76.6644 28.6567 77.1193 28.6333 77.446 28.61V30.85C77.1427 30.9433 76.676 31.095 76.046 31.305C75.4393 31.515 74.7977 31.725 74.121 31.935C73.4444 32.1217 72.826 32.285 72.266 32.425C71.706 32.5883 71.321 32.67 71.111 32.67C69.6643 32.67 68.416 32.3667 67.366 31.76C66.3393 31.1533 65.546 30.29 64.986 29.17C64.4493 28.0267 64.181 26.6733 64.181 25.11C64.181 24.0133 64.2743 22.9517 64.461 21.925C64.6477 20.8983 64.8577 20.105 65.091 19.545C65.3244 19.265 65.7327 18.915 66.316 18.495C66.9227 18.075 67.576 17.655 68.276 17.235C68.9993 16.7917 69.6644 16.43 70.271 16.15C70.8777 15.8467 71.321 15.695 71.601 15.695C72.9777 15.695 74.1443 15.94 75.101 16.43C76.081 16.92 76.816 17.795 77.306 19.055C77.8193 20.315 78.0527 22.1117 78.006 24.445L67.716 25.53V23.29L72.826 22.31C72.8494 21.1433 72.756 20.2217 72.546 19.545C72.336 18.845 72.0327 18.4367 71.636 18.32C71.5193 18.2733 71.3443 18.2383 71.111 18.215C70.8777 18.1917 70.7144 18.2033 70.621 18.25C70.3877 18.4133 70.1893 19.055 70.026 20.175C69.8627 21.295 69.781 22.8117 69.781 24.725Z" fill="white"/>
<path d="M87.1227 32.67C86.8427 32.67 86.376 32.6583 85.7227 32.635C85.0927 32.6117 84.381 32.5767 83.5877 32.53C82.7944 32.4833 82.0127 32.425 81.2427 32.355C80.496 32.3083 79.8777 32.2617 79.3877 32.215L79.4927 26.335H82.0827L82.8177 29.135C83.191 29.2517 83.6227 29.38 84.1127 29.52C84.6027 29.66 85.0577 29.7767 85.4777 29.87C85.921 29.94 86.2594 29.975 86.4927 29.975C86.6094 29.975 86.7027 29.9167 86.7727 29.8C86.866 29.6833 86.936 29.5317 86.9827 29.345C87.0294 29.1583 87.0527 28.9833 87.0527 28.82C87.0527 28.47 86.901 28.1667 86.5977 27.91C86.2944 27.63 85.8744 27.3383 85.3377 27.035C84.8244 26.7317 84.206 26.3817 83.4827 25.985C82.386 25.355 81.546 24.7833 80.9627 24.27C80.3794 23.7333 79.9827 23.1967 79.7727 22.66C79.586 22.1 79.4927 21.4933 79.4927 20.84C79.4927 20.5367 79.5044 20.2217 79.5277 19.895C79.5744 19.5683 79.6444 19.265 79.7377 18.985C79.971 18.705 80.286 18.3783 80.6827 18.005C81.1027 17.6317 81.546 17.27 82.0127 16.92C82.4794 16.57 82.911 16.2783 83.3077 16.045C83.7277 15.8117 84.0544 15.695 84.2877 15.695C84.6144 15.695 85.081 15.7067 85.6877 15.73C86.2944 15.73 86.9477 15.7533 87.6477 15.8C88.3477 15.8233 89.0127 15.8583 89.6427 15.905C90.2727 15.9283 90.7744 15.9633 91.1477 16.01L91.0427 21.05H88.1727L87.9277 19.09C87.8344 19.0433 87.6244 18.985 87.2977 18.915C86.971 18.845 86.6094 18.775 86.2127 18.705C85.816 18.635 85.4544 18.5767 85.1277 18.53C84.801 18.46 84.5794 18.425 84.4627 18.425C84.346 18.425 84.2527 18.4717 84.1827 18.565C84.136 18.6583 84.101 18.7633 84.0777 18.88C84.0544 18.9967 84.0427 19.1017 84.0427 19.195C84.0427 19.5683 84.206 19.9183 84.5327 20.245C84.8827 20.5717 85.2794 20.8633 85.7227 21.12C86.1894 21.3767 86.5744 21.5983 86.8777 21.785C87.4144 22.0883 87.9744 22.415 88.5577 22.765C89.141 23.115 89.701 23.5 90.2377 23.92C90.7744 24.3167 91.206 24.7483 91.5327 25.215C91.8594 25.6817 92.0227 26.1833 92.0227 26.72C92.0227 27.0233 91.9994 27.385 91.9527 27.805C91.9294 28.225 91.8594 28.5633 91.7427 28.82C91.556 29.1233 91.276 29.4967 90.9027 29.94C90.5294 30.3833 90.1094 30.815 89.6427 31.235C89.176 31.6317 88.721 31.97 88.2777 32.25C87.8344 32.53 87.4494 32.67 87.1227 32.67Z" fill="white"/>
<path d="M92.6021 12.055V9.85C92.6021 9.85 92.7654 9.82667 93.0921 9.78C93.4421 9.73333 93.8738 9.675 94.3871 9.605C94.9004 9.51167 95.4254 9.43 95.9621 9.36C96.4988 9.29 96.9654 9.23167 97.3621 9.185C97.7821 9.13833 98.0504 9.115 98.1671 9.115C98.2604 9.115 98.4121 9.22 98.6221 9.43C98.8321 9.61667 99.0304 9.82667 99.2171 10.06C99.4271 10.2933 99.5321 10.4567 99.5321 10.55L99.2521 17.83L99.4971 17.865C99.7771 17.655 100.08 17.4333 100.407 17.2C100.734 16.9433 101.049 16.6983 101.352 16.465C101.679 16.2317 101.947 16.045 102.157 15.905C102.39 15.765 102.542 15.695 102.612 15.695C103.779 15.695 104.77 15.8583 105.587 16.185C106.404 16.4883 107.022 17.025 107.442 17.795C107.885 18.5417 108.107 19.58 108.107 20.91L108.072 30.85C108.072 31.4567 107.897 32.145 107.547 32.915C107.197 33.685 106.695 34.4433 106.042 35.19C105.389 35.96 104.607 36.6367 103.697 37.22L102.087 35.855C102.344 34.9683 102.507 34.1983 102.577 33.545C102.647 32.915 102.67 32.32 102.647 31.76C102.647 31.1767 102.647 30.5583 102.647 29.905V20.98C102.647 20.5133 102.565 20.175 102.402 19.965C102.262 19.755 102.099 19.6267 101.912 19.58C101.725 19.51 101.574 19.475 101.457 19.475C101.387 19.475 101.224 19.5333 100.967 19.65C100.734 19.7433 100.477 19.8483 100.197 19.965C99.9404 20.0817 99.7188 20.1867 99.5321 20.28V29.17L100.967 29.695V31.865C100.967 31.865 100.722 31.9117 100.232 32.005C99.7654 32.075 99.2054 32.1567 98.5521 32.25C97.8988 32.3667 97.3038 32.46 96.7671 32.53C96.2304 32.6233 95.8921 32.67 95.7521 32.67C95.6588 32.67 95.4721 32.565 95.1921 32.355C94.9354 32.1683 94.6788 31.9583 94.4221 31.725C94.1888 31.4683 94.0721 31.2933 94.0721 31.2V12.58L92.6021 12.055Z" fill="white"/>
<path d="M115.682 32.67C114.399 32.67 113.36 32.4367 112.567 31.97C111.797 31.5033 111.225 30.8733 110.852 30.08C110.502 29.2867 110.327 28.4233 110.327 27.49C110.327 26.9533 110.374 26.4167 110.467 25.88C110.584 25.32 110.724 24.7483 110.887 24.165L115.822 25.985C115.752 26.1717 115.694 26.3817 115.647 26.615C115.624 26.8483 115.612 27.07 115.612 27.28C115.612 27.6533 115.682 28.0383 115.822 28.435C115.985 28.8083 116.254 28.995 116.627 28.995C116.837 28.995 117.07 28.9483 117.327 28.855C117.584 28.7383 117.852 28.5867 118.132 28.4C118.435 28.2133 118.739 28.015 119.042 27.805V30.08C118.669 30.36 118.237 30.71 117.747 31.13C117.257 31.5267 116.814 31.8883 116.417 32.215C116.02 32.5183 115.775 32.67 115.682 32.67ZM110.887 24.165L118.692 23.29V25.53L115.402 26.335L110.887 24.165ZM111.272 19.37L112.217 15.905C112.917 15.835 113.687 15.7883 114.527 15.765C115.367 15.7183 116.195 15.695 117.012 15.695C117.829 15.695 118.54 15.7533 119.147 15.87C119.497 15.94 119.929 16.185 120.442 16.605C120.979 17.025 121.504 17.5267 122.017 18.11C122.554 18.6933 122.997 19.2767 123.347 19.86C123.697 20.42 123.872 20.875 123.872 21.225V29.205L125.342 29.73V31.935C124.759 32.0283 124.082 32.1333 123.312 32.25C122.542 32.3667 121.842 32.46 121.212 32.53C120.582 32.6233 120.174 32.67 119.987 32.67C119.917 32.67 119.765 32.565 119.532 32.355C119.322 32.1683 119.112 31.9583 118.902 31.725C118.715 31.4917 118.622 31.3283 118.622 31.235V30.29L118.412 30.045V21.89C118.412 21.2367 118.319 20.7933 118.132 20.56C117.969 20.3033 117.584 20.1633 116.977 20.14C116.464 20.0933 115.892 20.07 115.262 20.07C114.655 20.07 114.049 20.0817 113.442 20.105C112.835 20.1283 112.299 20.1517 111.832 20.175L111.272 19.37Z" fill="white"/>
<path d="M127.251 29.21C127.251 29.13 127.411 28.9433 127.731 28.65C128.051 28.3567 128.424 28.0367 128.851 27.69C129.277 27.3167 129.664 26.9967 130.011 26.73C130.384 26.4633 130.611 26.33 130.691 26.33C130.824 26.33 131.064 26.49 131.411 26.81C131.757 27.1033 132.117 27.4633 132.491 27.89C132.891 28.3167 133.224 28.7167 133.491 29.09C133.757 29.4367 133.877 29.6633 133.851 29.77L133.571 30.81C133.544 30.9167 133.371 31.1167 133.051 31.41C132.731 31.7033 132.357 32.01 131.931 32.33C131.531 32.65 131.144 32.93 130.771 33.17C130.424 33.41 130.197 33.53 130.091 33.53C129.931 33.53 129.677 33.3833 129.331 33.09C129.011 32.7967 128.664 32.45 128.291 32.05C127.944 31.6233 127.637 31.2367 127.371 30.89C127.131 30.5167 127.024 30.2767 127.051 30.17L127.251 29.21Z" fill="white"/>
</svg>
