<svg xmlns="http://www.w3.org/2000/svg" version="1.1" viewBox="-5.0 -10.0 110.0 135.0">
 <g>
  <path d="m9.4258 68.48c0.90625 1.4375 2.4609 2.293 4.1562 2.293 0.71875 0 1.4219-0.17969 2.0703-0.48438l0.51562 23.055c0.019531 0.85156 0.71484 1.5273 1.5625 1.5273h0.035156c0.86328-0.019532 1.5469-0.73438 1.5273-1.5977l-0.92969-41.371c0-0.011719-0.007812-0.023438-0.007812-0.035156-0.007813-0.13672-0.046875-0.26563-0.089844-0.39453-0.019531-0.066406-0.027344-0.14062-0.054687-0.20312-0.03125-0.0625-0.082032-0.11328-0.12109-0.17188-0.078125-0.125-0.15625-0.24219-0.26562-0.33984 0 0-0.003907-0.003906-0.003907-0.007812-0.011718-0.011719-0.027343-0.011719-0.039062-0.023438-0.14453-0.12109-0.30469-0.21875-0.48828-0.27344-0.070313-0.023437-0.14453-0.019531-0.21484-0.03125-0.10547-0.015625-0.20312-0.054687-0.3125-0.046875-0.007813 0-0.015625 0.003906-0.023437 0.003906-0.15625 0.007813-0.30078 0.050782-0.44922 0.10156-0.046875 0.015625-0.10156 0.019531-0.14844 0.039062-0.097656 0.046875-0.17578 0.12109-0.26562 0.1875-0.078125 0.058594-0.16406 0.10547-0.22656 0.17578-0.007813 0.011719-0.023438 0.015626-0.035156 0.027344l-4.0078 4.6484c-0.85156 0.98047-0.95703 2.4258-0.25781 3.5117l3.7266 5.8164c0.47656 0.74609 0.33203 1.7422-0.32812 2.3164-0.81641 0.70312-2.125 0.49609-2.6875-0.39062l-5.582-8.8789c-0.60938-0.96484-0.53516-2.2031 0.1875-3.0859l7.875-9.6055c0.87891-1.0703 2.1875-1.6836 3.582-1.6836h15.129c2.4961 0 4.8008 1.2422 6.168 3.3203l5.1094 7.8281c0.52734 0.79297 1.4062 1.2656 2.3594 1.2656h6.3555c1.2383 0 2.3203 0.87109 2.4102 1.9297 0.050781 0.65234-0.17188 1.2734-0.62109 1.7109-0.39844 0.39844-0.9375 0.61719-1.5234 0.61719h-9.3398c-0.74219 0-1.4219-0.36719-1.8242-0.99219l-4.3555-6.6875c-0.066407-0.125-0.15234-0.24219-0.25-0.34766-0.003907-0.003906-0.007813-0.007813-0.011719-0.007813-0.12109-0.125-0.26562-0.22266-0.42188-0.30078-0.039063-0.019531-0.082032-0.039062-0.125-0.054687-0.15234-0.0625-0.3125-0.10156-0.48438-0.10938-0.015625 0-0.03125-0.011719-0.046875-0.011719-0.003906 0-0.007813 0.003906-0.015625 0.003906-0.007813 0-0.019531-0.003906-0.027344-0.003906-0.082031 0-0.15234 0.035156-0.23047 0.046875-0.125 0.019531-0.25391 0.027344-0.36719 0.074219-0.039063 0.015625-0.070313 0.046875-0.10938 0.070312-0.14062 0.074219-0.27734 0.15234-0.38672 0.26562-0.046875 0.046875-0.074219 0.10938-0.11719 0.16406-0.078126 0.10156-0.16406 0.20312-0.21875 0.32422-0.050782 0.11328-0.0625 0.24219-0.085938 0.37109-0.011719 0.074219-0.046875 0.13672-0.046875 0.21484v0.03125s-0.003906 0.007812-0.003906 0.015625v0.015625l-1.0039 39.965c-0.023437 0.86328 0.66016 1.5781 1.5234 1.6016h0.039062c0.84375 0 1.5391-0.67188 1.5625-1.5234l0.87891-34.984 1.6797 2.582c0.98047 1.5117 2.6406 2.4141 4.4453 2.4141h9.3398c1.418 0 2.7422-0.54297 3.7188-1.5234 0.94141-0.92188 1.457-2.1758 1.5195-3.5078l16.164-22.594c0.5-0.70313 0.33984-1.6797-0.35938-2.1797-0.70312-0.50391-1.6797-0.33984-2.1797 0.35938l-14.895 20.82c-1.0234-1.1484-2.5469-1.8906-4.2344-1.8906h-6.1992l-5.0117-7.6797c-1.9453-2.9648-5.2305-4.7344-8.7812-4.7344h-15.129c-2.3359 0-4.5195 1.0273-6 2.8242l-7.8789 9.6094c-1.5742 1.9219-1.7422 4.625-0.41406 6.7305l5.582 8.8828zm4.6367-10.973 1.2695-1.4727 0.078125 3.5781-1.3516-2.1055z" fill="#33FFCC"/>
  <path d="m26.445 39.91c4.8594 0 8.8125-3.9531 8.8125-8.8125s-3.9531-8.8125-8.8125-8.8125c-4.8594 0-8.8125 3.9531-8.8125 8.8125s3.9531 8.8125 8.8125 8.8125zm0-14.5c3.1367 0 5.6875 2.5508 5.6875 5.6875 0 3.1367-2.5508 5.6875-5.6875 5.6875-3.1367 0-5.6875-2.5508-5.6875-5.6875 0-3.1367 2.5508-5.6875 5.6875-5.6875z" fill="#33FFCC"/>
  <path d="m28.285 93.309v-17.359c0-0.86328-0.69922-1.5625-1.5625-1.5625-0.86328 0-1.5625 0.69922-1.5625 1.5625v17.359c0 0.86328 0.69922 1.5625 1.5625 1.5625 0.86328 0 1.5625-0.69922 1.5625-1.5625z" fill="#33FFCC"/>
  <path d="m95.312 5.1289h-88.668c-0.86328 0-1.5625 0.69922-1.5625 1.5625v38.148c0 0.86328 0.69922 1.5625 1.5625 1.5625s1.5625-0.69922 1.5625-1.5625v-36.586h85.543v62.566h-52.77c-0.86328 0-1.5625 0.69922-1.5625 1.5625 0 0.86328 0.69922 1.5625 1.5625 1.5625h54.332c0.86328 0 1.5625-0.69922 1.5625-1.5625v-65.691c0-0.86328-0.69922-1.5625-1.5625-1.5625z" fill="#33FFCC"/>
  <path d="m93.164 79.516c0.86328 0 1.5625-0.69922 1.5625-1.5625s-0.69922-1.5625-1.5625-1.5625h-52.281c-0.86328 0-1.5625 0.69922-1.5625 1.5625s0.69922 1.5625 1.5625 1.5625z" fill="#33FFCC"/>
 </g>
</svg>